<svg width="24" height="27" viewBox="0 0 24 27" fill="none" xmlns="http://www.w3.org/2000/svg">
<path d="M4.61466 4.112C4.80666 2.936 5.38266 2.036 6.34266 1.412C7.30266 0.787998 8.55066 0.475998 10.0867 0.475998L8.03466 11.96L22.0747 0.475998C22.5547 0.835999 22.9387 1.268 23.2267 1.772C23.5387 2.252 23.6947 2.708 23.6947 3.14C23.6947 3.548 23.5267 3.944 23.1907 4.328C22.8787 4.712 22.3987 5.156 21.7507 5.66L13.3267 12.464L21.0667 24.812C20.1307 25.82 19.0987 26.324 17.9707 26.324C16.7947 26.324 15.9547 25.892 15.4507 25.028L9.54666 15.416L7.06266 17.504L6.12666 22.904C5.93466 24.08 5.39466 24.944 4.50666 25.496C3.64266 26.048 2.38266 26.324 0.726656 26.324L4.61466 4.112Z" fill="#F9F6F6"/>
</svg>
