<svg width="87" height="14" viewBox="0 0 87 14" fill="none" xmlns="http://www.w3.org/2000/svg">
<path d="M2.04952 2.056C2.14552 1.468 2.43352 1.018 2.91352 0.705999C3.39352 0.393999 4.01752 0.237999 4.78552 0.237999L3.75952 5.98L10.7795 0.237999C11.0195 0.418 11.2115 0.634 11.3555 0.885999C11.5115 1.126 11.5895 1.354 11.5895 1.57C11.5895 1.774 11.5055 1.972 11.3375 2.164C11.1815 2.356 10.9415 2.578 10.6175 2.83L6.40552 6.232L10.2755 12.406C9.80752 12.91 9.29152 13.162 8.72752 13.162C8.13952 13.162 7.71952 12.946 7.46752 12.514L4.51552 7.708L3.27352 8.752L2.80552 11.452C2.70952 12.04 2.43952 12.472 1.99552 12.748C1.56352 13.024 0.933516 13.162 0.105516 13.162L2.04952 2.056ZM14.7989 13.162C14.0189 13.162 13.4009 12.94 12.9449 12.496C12.4889 12.052 12.2609 11.47 12.2609 10.75C12.2609 10.558 12.2789 10.354 12.3149 10.138L13.8269 1.606C13.9109 1.126 14.1509 0.777999 14.5469 0.561999C14.9429 0.345999 15.5309 0.237999 16.3109 0.237999L14.5829 10.048C14.5589 10.144 14.5469 10.276 14.5469 10.444C14.5469 10.708 14.6249 10.906 14.7809 11.038C14.9369 11.158 15.1829 11.218 15.5189 11.218C15.9509 11.218 16.4069 11.104 16.8869 10.876C17.0549 11.044 17.1389 11.272 17.1389 11.56C17.1389 12.004 16.9109 12.382 16.4549 12.694C16.0109 13.006 15.4589 13.162 14.7989 13.162ZM21.7331 2.992C21.3611 2.992 21.0551 2.89 20.8151 2.686C20.5751 2.47 20.4551 2.194 20.4551 1.858C20.4551 1.414 20.6291 1.036 20.9771 0.723999C21.3251 0.399999 21.7391 0.237999 22.2191 0.237999C22.5911 0.237999 22.8911 0.339999 23.1191 0.543999C23.3591 0.748 23.4791 1.018 23.4791 1.354C23.4791 1.798 23.3051 2.182 22.9571 2.506C22.6091 2.83 22.2011 2.992 21.7331 2.992ZM20.2031 5.206C20.2871 4.738 20.5271 4.396 20.9231 4.18C21.3311 3.952 21.9191 3.838 22.6871 3.838L21.2831 11.794C21.1991 12.274 20.9591 12.622 20.5631 12.838C20.1671 13.054 19.5791 13.162 18.7991 13.162L20.2031 5.206ZM27.4243 13.162C26.3803 13.162 25.5403 12.91 24.9043 12.406C24.2803 11.902 23.9683 11.236 23.9683 10.408C23.9683 10.228 23.9863 10.042 24.0223 9.85L24.4543 7.33C24.5743 6.646 24.8443 6.04 25.2643 5.512C25.6963 4.984 26.2363 4.576 26.8843 4.288C27.5443 3.988 28.2583 3.838 29.0263 3.838C29.9983 3.838 30.7903 4.042 31.4023 4.45C32.0143 4.846 32.3203 5.368 32.3203 6.016C32.3203 6.46 32.1283 6.82 31.7443 7.096C31.3603 7.36 30.8563 7.492 30.2323 7.492C30.2563 7.324 30.2683 7.204 30.2683 7.132C30.2683 6.712 30.1303 6.382 29.8543 6.142C29.5903 5.902 29.2303 5.782 28.7743 5.782C28.2463 5.782 27.7843 5.938 27.3883 6.25C27.0043 6.55 26.7703 6.94 26.6863 7.42L26.2903 9.688C26.2783 9.748 26.2723 9.832 26.2723 9.94C26.2723 10.324 26.4103 10.636 26.6863 10.876C26.9743 11.104 27.3523 11.218 27.8203 11.218C28.3483 11.218 28.8043 11.062 29.1883 10.75C29.5723 10.426 29.8123 10.018 29.9083 9.526C30.4003 9.526 30.8023 9.616 31.1143 9.796C31.4263 9.976 31.5823 10.216 31.5823 10.516C31.5823 11.032 31.4023 11.494 31.0423 11.902C30.6943 12.298 30.2023 12.61 29.5663 12.838C28.9423 13.054 28.2283 13.162 27.4243 13.162ZM41.6007 4.918C41.6007 5.086 41.5347 5.254 41.4027 5.422C41.2827 5.578 41.0847 5.77 40.8087 5.998L38.5947 7.78L41.1147 12.514C40.7907 12.946 40.3647 13.162 39.8367 13.162C39.6087 13.162 39.4107 13.108 39.2427 13C39.0867 12.904 38.9487 12.742 38.8287 12.514L37.0467 9.004L35.6427 10.138L35.3367 11.794C35.2527 12.274 35.0067 12.622 34.5987 12.838C34.2027 13.054 33.6327 13.162 32.8887 13.162L34.8507 1.966C34.9467 1.414 35.2047 0.987999 35.6247 0.688C36.0567 0.387999 36.6567 0.237999 37.4247 0.237999L36.0927 7.654L40.8987 3.838C41.3667 4.27 41.6007 4.63 41.6007 4.918Z" fill="black"/>
<path d="M44.7313 1.498C44.7793 1.198 44.9413 0.939999 45.2173 0.723999C45.4933 0.507999 45.7993 0.399999 46.1353 0.399999H54.2893C54.1573 1.12 53.9413 1.648 53.6413 1.984C53.3413 2.308 52.9153 2.47 52.3633 2.47H46.9813L46.4413 5.512H51.2293C51.1093 6.232 50.8933 6.76 50.5813 7.096C50.2693 7.42 49.8433 7.582 49.3033 7.582H46.0633L45.3793 11.452C45.2713 12.052 45.0013 12.49 44.5693 12.766C44.1493 13.03 43.5193 13.162 42.6793 13.162L44.7313 1.498ZM57.426 5.782C56.718 5.782 56.106 5.968 55.59 6.34C55.074 6.712 54.768 7.186 54.672 7.762L53.97 11.794C53.874 12.274 53.628 12.622 53.232 12.838C52.848 13.054 52.266 13.162 51.486 13.162L52.818 5.566C52.914 5.002 53.166 4.576 53.574 4.288C53.994 3.988 54.558 3.838 55.266 3.838L55.086 4.9C54.774 5.236 54.594 5.434 54.546 5.494L54.636 5.566C55.632 4.414 56.682 3.838 57.786 3.838C58.206 3.838 58.53 3.94 58.758 4.144C58.998 4.336 59.118 4.606 59.118 4.954C59.118 5.146 59.082 5.338 59.01 5.53C58.938 5.722 58.842 5.896 58.722 6.052C58.434 5.872 58.002 5.782 57.426 5.782ZM62.3709 13.162C61.6989 13.162 61.0989 13.036 60.5709 12.784C60.0429 12.532 59.6289 12.19 59.3289 11.758C59.0289 11.314 58.8789 10.822 58.8789 10.282C58.8789 10.066 58.8909 9.904 58.9149 9.796L59.3469 7.402C59.4669 6.706 59.7429 6.088 60.1749 5.548C60.6189 5.008 61.1709 4.588 61.8309 4.288C62.5029 3.988 63.2349 3.838 64.0269 3.838C64.6869 3.838 65.2689 3.958 65.7729 4.198C66.2769 4.438 66.6669 4.774 66.9429 5.206C67.2189 5.638 67.3569 6.13 67.3569 6.682C67.3569 6.874 67.3389 7.078 67.3029 7.294L67.1229 8.302C67.0629 8.578 66.9189 8.806 66.6909 8.986C66.4749 9.154 66.2169 9.238 65.9169 9.238H61.2009L61.1289 9.634C61.1049 9.802 61.0929 9.922 61.0929 9.994C61.0929 10.438 61.2309 10.78 61.5069 11.02C61.7829 11.26 62.1789 11.38 62.6949 11.38C63.2589 11.38 63.7209 11.254 64.0809 11.002C64.4409 10.75 64.6569 10.402 64.7289 9.958C64.8369 9.946 64.9809 9.94 65.1609 9.94C65.5689 9.94 65.8809 10.018 66.0969 10.174C66.3249 10.318 66.4389 10.534 66.4389 10.822C66.4389 11.23 66.2529 11.614 65.8809 11.974C65.5089 12.334 65.0109 12.622 64.3869 12.838C63.7629 13.054 63.0909 13.162 62.3709 13.162ZM65.1969 7.636L65.2689 7.294C65.2929 7.198 65.3049 7.06 65.3049 6.88C65.3049 6.472 65.1669 6.16 64.8909 5.944C64.6149 5.716 64.2189 5.602 63.7029 5.602C63.1509 5.602 62.6769 5.758 62.2809 6.07C61.8849 6.37 61.6389 6.778 61.5429 7.294L61.4709 7.636H65.1969ZM71.8254 13.162C70.7574 13.162 69.8814 12.982 69.1974 12.622C68.5254 12.262 68.1894 11.782 68.1894 11.182C68.1894 10.75 68.3454 10.414 68.6574 10.174C68.9694 9.934 69.4074 9.808 69.9714 9.796C69.9714 10.3 70.1394 10.702 70.4754 11.002C70.8234 11.29 71.2914 11.434 71.8794 11.434C72.5634 11.434 73.0914 11.338 73.4634 11.146C73.8354 10.954 74.0214 10.678 74.0214 10.318C74.0214 10.078 73.8774 9.874 73.5894 9.706C73.3014 9.526 72.8154 9.358 72.1314 9.202C70.9914 8.914 70.1814 8.584 69.7014 8.212C69.2334 7.828 68.9994 7.342 68.9994 6.754C68.9994 5.842 69.3534 5.128 70.0614 4.612C70.7694 4.096 71.7474 3.838 72.9954 3.838C74.0394 3.838 74.8974 4.012 75.5694 4.36C76.2534 4.708 76.5954 5.158 76.5954 5.71C76.5954 6.13 76.4574 6.442 76.1814 6.646C75.9054 6.838 75.4674 6.94 74.8674 6.952C74.8074 6.46 74.6274 6.1 74.3274 5.872C74.0274 5.632 73.5834 5.512 72.9954 5.512C72.4794 5.512 72.0414 5.608 71.6814 5.8C71.3334 5.98 71.1594 6.208 71.1594 6.484C71.1594 6.688 71.2794 6.862 71.5194 7.006C71.7714 7.138 72.2094 7.27 72.8334 7.402C75.0534 7.882 76.1634 8.8 76.1634 10.156C76.1634 11.116 75.7794 11.86 75.0114 12.388C74.2554 12.904 73.1934 13.162 71.8254 13.162ZM79.2351 1.966C79.3431 1.414 79.6191 0.987999 80.0631 0.688C80.5071 0.387999 81.0831 0.237999 81.7911 0.237999L80.9631 4.918C80.7951 5.086 80.6151 5.278 80.4231 5.494L80.5311 5.566C81.5751 4.414 82.7271 3.838 83.9871 3.838C84.7551 3.838 85.3791 4.084 85.8591 4.576C86.3511 5.056 86.5971 5.674 86.5971 6.43C86.5971 6.61 86.5791 6.802 86.5431 7.006L85.6971 11.794C85.6011 12.262 85.3551 12.61 84.9591 12.838C84.5631 13.054 83.9811 13.162 83.2131 13.162L84.2391 7.33C84.2631 7.138 84.2751 7.006 84.2751 6.934C84.2751 6.562 84.1551 6.28 83.9151 6.088C83.6871 5.884 83.3511 5.782 82.9071 5.782C82.3071 5.782 81.7731 5.974 81.3051 6.358C80.8371 6.73 80.5551 7.198 80.4591 7.762L79.7571 11.794C79.6731 12.274 79.4331 12.622 79.0371 12.838C78.6411 13.054 78.0531 13.162 77.2731 13.162L79.2351 1.966Z" fill="#E81A2E"/>
</svg>
